<svg xmlns="http://www.w3.org/2000/svg" viewBox="0 0 57 57" shape-rendering="crispEdges"><path fill="#ffffff" d="M0 0h57v57H0z"/><path stroke="#065f46" d="M2 2.5h7m1 0h1m3 0h3m1 0h1m1 0h1m3 0h4m1 0h1m1 0h2m1 0h8m1 0h2m3 0h7M2 3.5h1m5 0h1m2 0h3m1 0h1m2 0h1m2 0h2m1 0h1m1 0h1m2 0h1m1 0h2m7 0h6m2 0h1m5 0h1M2 4.5h1m1 0h3m1 0h1m1 0h2m2 0h1m2 0h3m7 0h1m1 0h4m1 0h4m5 0h1m1 0h1m2 0h1m1 0h3m1 0h1M2 5.5h1m1 0h3m1 0h1m1 0h5m1 0h2m1 0h1m1 0h1m1 0h2m1 0h2m7 0h1m3 0h3m2 0h1m1 0h1m1 0h1m1 0h3m1 0h1M2 6.5h1m1 0h3m1 0h1m2 0h5m1 0h4m1 0h1m1 0h1m1 0h5m1 0h1m1 0h2m1 0h2m1 0h5m3 0h1m1 0h3m1 0h1M2 7.5h1m5 0h1m1 0h3m1 0h1m2 0h1m4 0h2m2 0h1m3 0h2m3 0h2m1 0h2m1 0h2m1 0h1m3 0h1m5 0h1M2 8.5h7m1 0h1m1 0h1m1 0h1m1 0h1m1 0h1m1 0h1m1 0h1m1 0h1m1 0h1m1 0h1m1 0h1m1 0h1m1 0h1m1 0h1m1 0h1m1 0h1m1 0h1m1 0h1m1 0h1m1 0h7M10 9.5h3m3 0h2m4 0h2m1 0h2m3 0h1m1 0h1m1 0h3m1 0h4m2 0h1M3 10.5h1m1 0h1m1 0h4m1 0h2m2 0h3m1 0h1m1 0h1m1 0h1m1 0h8m1 0h1m2 0h2m1 0h2m1 0h6m1 0h2m1 0h1M2 11.5h1m1 0h4m1 0h1m1 0h1m2 0h2m2 0h3m1 0h1m2 0h1m1 0h1m10 0h1m3 0h1m2 0h1m1 0h1m4 0h3M3 12.5h1m1 0h1m1 0h2m2 0h2m1 0h5m1 0h2m3 0h1m4 0h1m2 0h1m2 0h1m1 0h2m1 0h2m4 0h3m2 0h2M3 13.5h1m6 0h1m1 0h1m2 0h3m2 0h2m2 0h1m4 0h3m4 0h3m1 0h3m1 0h3m1 0h1m1 0h1m1 0h3M2 14.5h3m1 0h1m1 0h3m3 0h2m2 0h1m2 0h2m2 0h4m1 0h5m2 0h15m1 0h1M6 15.5h1m3 0h9m4 0h3m1 0h4m2 0h1m7 0h1m1 0h1m4 0h6M3 16.5h3m2 0h2m1 0h1m2 0h1m1 0h3m6 0h2m3 0h2m1 0h1m2 0h1m1 0h1m1 0h1m2 0h1m1 0h3m2 0h2m1 0h2M3 17.5h3m4 0h1m1 0h2m14 0h4m1 0h3m1 0h2m3 0h2m1 0h1m3 0h2m2 0h2M2 18.5h1m4 0h2m1 0h3m1 0h6m2 0h1m1 0h1m1 0h1m3 0h3m1 0h2m1 0h5m7 0h2m1 0h1M2 19.5h1m4 0h1m1 0h3m3 0h1m2 0h1m1 0h3m1 0h2m1 0h3m1 0h1m2 0h1m5 0h1m2 0h1m2 0h1m2 0h6M2 20.5h5m1 0h2m3 0h1m1 0h1m2 0h1m1 0h4m1 0h2m1 0h1m8 0h1m3 0h2m2 0h3m2 0h5M3 21.5h2m1 0h2m2 0h1m2 0h1m1 0h4m1 0h1m4 0h2m2 0h2m1 0h1m1 0h3m4 0h1m1 0h2m5 0h2M3 22.5h4m1 0h1m3 0h3m1 0h1m2 0h2m2 0h5m1 0h1m1 0h1m1 0h1m3 0h2m2 0h3m1 0h2m3 0h2m1 0h2M2 23.5h6m1 0h2m4 0h3m1 0h5m1 0h2m5 0h1m6 0h1m1 0h2m4 0h1m3 0h4M4 24.5h2m1 0h2m4 0h2m3 0h1m3 0h2m1 0h2m2 0h2m1 0h1m1 0h1m1 0h1m1 0h5m2 0h1m2 0h1m1 0h1m1 0h2M3 25.5h1m1 0h1m1 0h1m1 0h2m2 0h2m1 0h8m4 0h2m2 0h2m1 0h1m2 0h3m1 0h1m4 0h1m1 0h2m1 0h1M2 26.5h1m1 0h1m1 0h11m3 0h1m1 0h1m3 0h5m2 0h2m1 0h5m1 0h1m2 0h7M2 27.5h3m1 0h1m3 0h4m3 0h3m2 0h1m1 0h3m3 0h1m2 0h1m2 0h1m1 0h2m2 0h2m1 0h2m3 0h2m1 0h1M2 28.5h1m1 0h3m1 0h1m1 0h1m1 0h1m1 0h2m3 0h3m1 0h1m2 0h1m1 0h1m1 0h1m2 0h2m4 0h5m1 0h2m1 0h1m1 0h5M2 29.5h1m3 0h1m3 0h1m4 0h3m1 0h1m1 0h1m2 0h3m3 0h1m2 0h1m1 0h1m2 0h1m1 0h1m1 0h2m1 0h2m3 0h1m2 0h1M2 30.5h2m1 0h6m6 0h2m1 0h4m2 0h5m1 0h1m2 0h1m1 0h3m1 0h1m2 0h1m1 0h6m1 0h1M4 31.5h2m1 0h1m3 0h3m4 0h1m1 0h1m2 0h2m1 0h3m2 0h1m1 0h1m1 0h1m1 0h1m2 0h1m4 0h1m1 0h1m1 0h1m1 0h1m1 0h2M2 32.5h2m3 0h3m1 0h4m1 0h1m5 0h2m1 0h1m1 0h1m3 0h3m1 0h1m1 0h3m2 0h3m1 0h1m1 0h1m1 0h1m1 0h3M3 33.5h2m1 0h2m5 0h2m1 0h2m1 0h1m3 0h1m2 0h2m2 0h2m1 0h6m1 0h2m1 0h5m1 0h1m1 0h1m1 0h2M4 34.5h3m1 0h3m3 0h1m2 0h1m1 0h1m1 0h1m1 0h1m3 0h1m1 0h1m3 0h1m4 0h1m2 0h3m3 0h3m1 0h3M2 35.5h1m2 0h2m2 0h3m1 0h1m1 0h1m1 0h1m1 0h1m2 0h2m1 0h1m3 0h1m9 0h1m1 0h1m1 0h1m1 0h2m6 0h2M3 36.5h9m2 0h1m3 0h1m1 0h2m1 0h2m2 0h5m3 0h5m1 0h1m3 0h3m1 0h2m1 0h2M3 37.5h1m1 0h1m1 0h1m1 0h1m2 0h3m1 0h1m3 0h1m1 0h1m3 0h1m4 0h1m1 0h1m2 0h1m1 0h7m2 0h3m2 0h2M3 38.5h1m1 0h2m1 0h2m3 0h1m1 0h1m1 0h1m2 0h1m2 0h4m2 0h15m3 0h1m1 0h1m3 0h2M5 39.5h1m1 0h1m1 0h1m3 0h1m2 0h2m1 0h1m1 0h1m3 0h3m2 0h2m1 0h2m1 0h4m5 0h2m6 0h1M3 40.5h3m1 0h2m1 0h1m1 0h2m1 0h2m1 0h3m3 0h2m1 0h2m1 0h2m1 0h6m1 0h2m1 0h1m1 0h1m1 0h5m2 0h1M2 41.5h1m7 0h1m2 0h2m2 0h1m3 0h1m2 0h3m1 0h3m1 0h4m2 0h1m2 0h3m2 0h1m1 0h1m4 0h2M3 42.5h3m2 0h2m2 0h1m1 0h5m2 0h1m2 0h1m3 0h1m1 0h1m1 0h1m1 0h2m1 0h2m4 0h3m3 0h1m3 0h2M2 43.5h3m2 0h1m1 0h1m4 0h3m1 0h2m1 0h2m1 0h4m5 0h1m3 0h2m1 0h1m1 0h2m1 0h1m5 0h4M2 44.5h2m1 0h4m2 0h1m3 0h5m1 0h1m6 0h2m1 0h2m1 0h1m2 0h1m1 0h1m1 0h1m1 0h1m1 0h1m1 0h2m2 0h1m2 0h1M3 45.5h2m5 0h1m1 0h3m4 0h2m1 0h1m2 0h1m1 0h1m1 0h2m2 0h7m1 0h2m1 0h4m2 0h2m1 0h2M5 46.5h1m2 0h2m1 0h3m3 0h1m1 0h4m1 0h10m1 0h2m1 0h1m1 0h2m2 0h1m1 0h5m1 0h2M10 47.5h2m2 0h1m5 0h1m3 0h1m1 0h1m3 0h3m1 0h2m1 0h2m2 0h1m3 0h2m3 0h1m1 0h1m1 0h1M2 48.5h7m1 0h1m1 0h4m1 0h1m2 0h1m1 0h1m2 0h2m1 0h1m1 0h3m2 0h1m1 0h2m6 0h2m1 0h1m1 0h1m2 0h1M2 49.5h1m5 0h1m1 0h1m7 0h3m1 0h1m1 0h3m3 0h4m2 0h1m1 0h1m3 0h1m2 0h2m3 0h1m1 0h1m1 0h1M2 50.5h1m1 0h3m1 0h1m2 0h4m1 0h1m1 0h3m1 0h1m2 0h10m2 0h7m2 0h6m1 0h2M2 51.5h1m1 0h3m1 0h1m1 0h3m1 0h2m2 0h3m3 0h1m2 0h3m1 0h1m1 0h1m1 0h3m1 0h1m1 0h1m4 0h1m2 0h4M2 52.5h1m1 0h3m1 0h1m2 0h2m10 0h2m2 0h1m2 0h1m7 0h2m1 0h3m1 0h1m1 0h2m1 0h5M2 53.5h1m5 0h1m1 0h1m2 0h2m1 0h1m4 0h2m1 0h2m1 0h1m1 0h1m1 0h5m1 0h1m2 0h3m1 0h1m1 0h1m6 0h1M2 54.5h7m2 0h2m6 0h2m2 0h3m1 0h1m1 0h4m1 0h4m1 0h1m1 0h1m1 0h1m2 0h6m1 0h1"/></svg>
