<svg xmlns="http://www.w3.org/2000/svg" viewBox="0 0 57 57" shape-rendering="crispEdges"><path fill="#ffffff" d="M0 0h57v57H0z"/><path stroke="#065f46" d="M2 2.5h7m1 0h1m4 0h1m1 0h1m1 0h1m2 0h2m1 0h1m1 0h2m3 0h1m1 0h1m3 0h2m2 0h3m3 0h7M2 3.5h1m5 0h1m3 0h4m3 0h4m3 0h1m4 0h1m1 0h6m1 0h2m2 0h2m2 0h1m5 0h1M2 4.5h1m1 0h3m1 0h1m2 0h1m1 0h3m3 0h3m1 0h1m1 0h3m4 0h1m1 0h1m2 0h1m3 0h2m2 0h1m2 0h1m1 0h3m1 0h1M2 5.5h1m1 0h3m1 0h1m2 0h1m1 0h1m1 0h1m1 0h2m1 0h1m1 0h5m2 0h1m1 0h3m4 0h2m1 0h1m1 0h2m1 0h1m1 0h1m1 0h3m1 0h1M2 6.5h1m1 0h3m1 0h1m1 0h1m1 0h1m5 0h1m1 0h1m3 0h1m1 0h5m1 0h2m3 0h3m2 0h3m3 0h1m1 0h3m1 0h1M2 7.5h1m5 0h1m1 0h1m2 0h2m2 0h2m1 0h1m2 0h1m2 0h1m3 0h4m1 0h2m1 0h1m1 0h3m1 0h1m3 0h1m5 0h1M2 8.5h7m1 0h1m1 0h1m1 0h1m1 0h1m1 0h1m1 0h1m1 0h1m1 0h1m1 0h1m1 0h1m1 0h1m1 0h1m1 0h1m1 0h1m1 0h1m1 0h1m1 0h1m1 0h1m1 0h1m1 0h7M12 9.5h3m1 0h2m1 0h2m1 0h3m1 0h1m3 0h1m1 0h4m3 0h1m1 0h3M3 10.5h7m1 0h1m3 0h2m1 0h4m1 0h9m1 0h1m3 0h4m2 0h4m2 0h2m3 0h1M2 11.5h1m1 0h1m1 0h2m1 0h1m3 0h1m2 0h3m2 0h1m2 0h2m1 0h3m1 0h4m2 0h1m1 0h1m2 0h3m7 0h3M3 12.5h2m1 0h1m1 0h2m2 0h1m1 0h1m1 0h1m1 0h2m1 0h1m1 0h3m1 0h5m1 0h4m1 0h1m1 0h1m1 0h1m2 0h2m1 0h4M2 13.5h2m1 0h1m3 0h1m1 0h1m2 0h3m1 0h5m1 0h1m2 0h1m3 0h1m2 0h1m1 0h2m1 0h3m2 0h1m2 0h1m3 0h1m1 0h2M2 14.5h1m2 0h1m2 0h1m4 0h3m2 0h1m1 0h6m1 0h1m3 0h3m1 0h5m2 0h3m2 0h1m1 0h2m1 0h1m1 0h1M2 15.5h3m2 0h1m7 0h2m2 0h1m1 0h2m7 0h1m1 0h1m3 0h4m1 0h4m3 0h2m1 0h4M3 16.5h2m1 0h3m2 0h3m3 0h1m3 0h4m1 0h2m3 0h1m1 0h1m1 0h1m1 0h3m2 0h2m3 0h1m3 0h2M2 17.5h1m1 0h1m1 0h1m2 0h1m1 0h1m4 0h3m1 0h1m4 0h1m1 0h1m1 0h1m1 0h1m2 0h2m5 0h2m1 0h1m4 0h1m1 0h1m1 0h2M2 18.5h4m2 0h1m1 0h1m4 0h1m2 0h1m3 0h4m1 0h7m3 0h3m3 0h1m2 0h2m1 0h5M3 19.5h2m1 0h1m3 0h1m1 0h2m2 0h1m1 0h1m1 0h2m2 0h1m2 0h1m1 0h5m4 0h2m2 0h4m3 0h1m2 0h3M2 20.5h2m1 0h1m1 0h3m2 0h3m2 0h1m2 0h2m2 0h3m1 0h2m1 0h1m2 0h4m2 0h2m6 0h2m1 0h1M2 21.5h2m1 0h3m1 0h1m1 0h1m1 0h3m3 0h1m1 0h2m4 0h3m1 0h1m2 0h2m1 0h2m2 0h5m2 0h1m2 0h1m2 0h1M2 22.5h2m3 0h2m4 0h5m2 0h2m4 0h4m3 0h1m1 0h2m1 0h2m6 0h5m1 0h2M2 23.5h1m3 0h2m2 0h5m1 0h7m4 0h5m1 0h1m3 0h2m2 0h1m1 0h2m2 0h1m1 0h2m2 0h2M2 24.5h4m2 0h2m1 0h1m1 0h2m1 0h2m1 0h1m1 0h1m1 0h1m5 0h1m2 0h2m1 0h2m1 0h2m3 0h1m2 0h3m1 0h2M2 25.5h2m2 0h2m6 0h2m3 0h2m1 0h1m1 0h2m1 0h2m2 0h1m2 0h1m7 0h2m3 0h1m1 0h1m1 0h1m2 0h1M6 26.5h5m2 0h1m3 0h3m3 0h1m1 0h7m1 0h1m3 0h3m3 0h2m1 0h7M6 27.5h1m3 0h2m3 0h6m1 0h1m1 0h3m3 0h1m2 0h1m4 0h2m3 0h4m3 0h1m3 0h1M6 28.5h1m1 0h1m1 0h3m1 0h1m2 0h3m1 0h1m1 0h4m1 0h1m1 0h1m1 0h5m1 0h3m1 0h5m1 0h1m1 0h3M4 29.5h3m3 0h1m3 0h1m8 0h4m3 0h3m3 0h1m2 0h5m2 0h1m3 0h1M2 30.5h1m3 0h9m3 0h1m3 0h9m1 0h3m1 0h3m1 0h1m5 0h6m2 0h1M3 31.5h2m1 0h2m2 0h2m4 0h1m2 0h1m2 0h5m4 0h2m1 0h1m2 0h3m1 0h1m1 0h1m1 0h1m1 0h1m1 0h2m1 0h3M6 32.5h4m1 0h2m5 0h3m1 0h1m1 0h3m4 0h4m1 0h2m1 0h2m1 0h1m1 0h1m2 0h1m2 0h1M2 33.5h3m1 0h2m5 0h1m2 0h1m2 0h1m2 0h1m1 0h1m3 0h1m1 0h1m3 0h1m1 0h1m3 0h3m2 0h4m1 0h2m1 0h1M2 34.5h3m3 0h1m1 0h2m1 0h2m3 0h3m1 0h2m2 0h1m2 0h1m2 0h2m2 0h3m7 0h1m1 0h1m2 0h2M5 35.5h1m1 0h1m1 0h2m1 0h3m2 0h1m3 0h1m1 0h2m1 0h1m1 0h3m2 0h2m6 0h1m2 0h1m1 0h2m1 0h3M3 36.5h1m3 0h5m1 0h6m1 0h1m3 0h3m3 0h2m1 0h1m2 0h2m2 0h1m4 0h1m1 0h1m1 0h3M3 37.5h3m1 0h1m2 0h1m2 0h4m4 0h1m2 0h2m2 0h1m3 0h3m4 0h5m1 0h7M2 38.5h4m2 0h2m3 0h1m1 0h1m2 0h3m2 0h1m3 0h7m1 0h1m1 0h2m1 0h1m2 0h1m2 0h1m2 0h1m2 0h1m1 0h1M2 39.5h1m1 0h1m5 0h1m2 0h3m2 0h1m1 0h4m1 0h1m6 0h2m4 0h2m2 0h5m2 0h2m2 0h2M3 40.5h1m1 0h1m1 0h2m2 0h2m5 0h1m1 0h1m1 0h1m2 0h3m1 0h1m4 0h7m1 0h1m2 0h1m4 0h2M3 41.5h1m1 0h1m1 0h1m5 0h4m2 0h4m1 0h1m2 0h1m1 0h2m2 0h1m1 0h3m2 0h3m1 0h3m1 0h4m1 0h2M2 42.5h3m1 0h1m1 0h1m1 0h3m1 0h5m2 0h2m5 0h3m1 0h2m3 0h3m1 0h1m1 0h2m1 0h1m2 0h4M2 43.5h2m3 0h1m2 0h1m1 0h1m2 0h1m1 0h1m1 0h2m3 0h1m1 0h1m1 0h1m2 0h4m2 0h1m1 0h1m2 0h3m1 0h1m3 0h5M2 44.5h2m1 0h4m1 0h1m6 0h1m1 0h1m2 0h1m2 0h1m4 0h2m1 0h1m1 0h3m2 0h1m1 0h2m1 0h2m3 0h1m1 0h2M3 45.5h2m5 0h1m1 0h1m5 0h1m2 0h1m2 0h1m2 0h1m5 0h3m3 0h2m2 0h4m1 0h1m1 0h2m1 0h1M5 46.5h1m2 0h2m2 0h1m1 0h2m1 0h1m1 0h1m6 0h8m3 0h5m2 0h1m1 0h5m1 0h1m1 0h1M10 47.5h1m1 0h1m1 0h2m2 0h3m3 0h3m3 0h1m2 0h1m1 0h1m3 0h1m3 0h2m1 0h1m3 0h1m3 0h1M2 48.5h7m1 0h1m1 0h1m1 0h4m2 0h4m2 0h1m1 0h1m1 0h1m2 0h1m3 0h2m1 0h2m4 0h1m1 0h1m1 0h3M2 49.5h1m5 0h1m1 0h1m1 0h4m2 0h2m4 0h3m3 0h1m3 0h1m1 0h1m2 0h6m1 0h1m3 0h2m2 0h1M2 50.5h1m1 0h3m1 0h1m1 0h2m1 0h1m2 0h9m1 0h5m1 0h2m1 0h5m3 0h2m1 0h5m1 0h1M2 51.5h1m1 0h3m1 0h1m1 0h1m1 0h1m2 0h2m4 0h1m3 0h4m3 0h2m1 0h1m2 0h2m2 0h1m1 0h1m1 0h1m7 0h1M2 52.5h1m1 0h3m1 0h1m1 0h1m1 0h1m1 0h2m3 0h2m6 0h1m1 0h2m2 0h8m1 0h2m1 0h1m4 0h3M2 53.5h1m5 0h1m1 0h2m1 0h1m2 0h2m1 0h3m1 0h1m1 0h6m1 0h1m1 0h2m2 0h3m1 0h3m1 0h1m4 0h1m1 0h1M2 54.5h7m2 0h1m2 0h1m1 0h1m1 0h2m1 0h1m2 0h1m1 0h1m2 0h1m1 0h1m1 0h1m2 0h2m2 0h1m2 0h2m1 0h1m1 0h1m1 0h1m1 0h1"/></svg>
